<svg width="476" height="476" viewBox="0 0 476 476" fill="none" xmlns="http://www.w3.org/2000/svg">
<g filter="url(#filter0_d_325_73)">
<g filter="url(#filter1_d_325_73)">
<path d="M238 40.5555C199.147 40.5555 161.167 52.0768 128.862 73.6624C96.5564 95.248 71.3776 125.928 56.5092 161.824C41.6408 197.719 37.7505 237.218 45.3304 275.324C52.9102 313.431 71.6198 348.434 99.093 375.907C126.566 403.38 161.569 422.09 199.676 429.67C237.782 437.25 277.281 433.359 313.176 418.491C349.072 403.623 379.752 378.444 401.338 346.139C422.923 313.834 434.445 275.853 434.445 237C434.445 184.9 413.748 134.933 376.907 98.0928C340.067 61.2523 290.101 40.5555 238 40.5555ZM238.737 257.627C236.663 257.643 234.606 257.248 232.685 256.466C230.764 255.683 229.017 254.528 227.545 253.067C226.072 251.606 224.904 249.868 224.106 247.954C223.309 246.039 222.898 243.985 222.899 241.911V122.203C222.899 118.002 224.567 113.974 227.537 111.003C230.508 108.033 234.536 106.364 238.737 106.364C242.937 106.364 246.966 108.033 249.936 111.003C252.907 113.974 254.575 118.002 254.575 122.203V241.911C254.575 243.985 254.165 246.039 253.367 247.954C252.57 249.868 251.401 251.606 249.929 253.067C248.457 254.528 246.71 255.683 244.789 256.466C242.868 257.248 240.811 257.643 238.737 257.627ZM238 357.199C212.141 357.505 186.86 349.539 165.848 334.463C144.836 319.386 129.192 297.989 121.199 273.394C113.207 248.799 113.284 222.293 121.419 197.745C129.554 173.196 145.322 151.89 166.421 136.936C170.096 134.317 174.653 133.248 179.11 133.96C183.566 134.672 187.564 137.108 190.24 140.742C191.546 142.537 192.484 144.572 193 146.731C193.516 148.89 193.599 151.13 193.245 153.321C192.891 155.513 192.107 157.612 190.938 159.499C189.769 161.386 188.238 163.023 186.434 164.316C174.297 173.228 164.647 185.101 158.401 198.802C152.155 212.503 149.523 227.575 150.756 242.582C151.988 257.589 157.043 272.03 165.44 284.528C173.837 297.027 185.296 307.166 198.723 313.98C212.151 320.794 227.1 324.054 242.145 323.451C257.19 322.848 271.83 318.401 284.669 310.535C297.508 302.668 308.118 291.644 315.488 278.514C322.858 265.383 326.741 250.584 326.769 235.527C326.727 221.653 323.361 207.992 316.953 195.687C310.544 183.382 301.279 172.793 289.935 164.807C286.442 162.05 284.184 158.021 283.654 153.603C283.125 149.185 284.368 144.737 287.111 141.233C289.823 137.638 293.839 135.25 298.293 134.584C302.747 133.918 307.285 135.027 310.93 137.673C331.809 152.798 347.325 174.183 355.229 198.723C363.132 223.264 363.01 249.685 354.882 274.152C346.754 298.619 331.041 319.86 310.024 334.793C289.007 349.726 263.779 357.574 238 357.199Z" fill="#AFD9FD"/>
</g>
</g>
<defs>
<filter id="filter0_d_325_73" x="13" y="16" width="450" height="450" filterUnits="userSpaceOnUse" color-interpolation-filters="sRGB">
<feFlood flood-opacity="0" result="BackgroundImageFix"/>
<feColorMatrix in="SourceAlpha" type="matrix" values="0 0 0 0 0 0 0 0 0 0 0 0 0 0 0 0 0 0 127 0" result="hardAlpha"/>
<feOffset dy="4"/>
<feGaussianBlur stdDeviation="2"/>
<feComposite in2="hardAlpha" operator="out"/>
<feColorMatrix type="matrix" values="0 0 0 0 0 0 0 0 0 0 0 0 0 0 0 0 0 0 0.25 0"/>
<feBlend mode="normal" in2="BackgroundImageFix" result="effect1_dropShadow_325_73"/>
<feBlend mode="normal" in="SourceGraphic" in2="effect1_dropShadow_325_73" result="shape"/>
</filter>
<filter id="filter1_d_325_73" x="0.955666" y="0.955544" width="474.089" height="474.089" filterUnits="userSpaceOnUse" color-interpolation-filters="sRGB">
<feFlood flood-opacity="0" result="BackgroundImageFix"/>
<feColorMatrix in="SourceAlpha" type="matrix" values="0 0 0 0 0 0 0 0 0 0 0 0 0 0 0 0 0 0 127 0" result="hardAlpha"/>
<feOffset dy="1"/>
<feGaussianBlur stdDeviation="20.3"/>
<feComposite in2="hardAlpha" operator="out"/>
<feColorMatrix type="matrix" values="0 0 0 0 0 0 0 0 0 0.538462 0 0 0 0 1 0 0 0 1 0"/>
<feBlend mode="normal" in2="BackgroundImageFix" result="effect1_dropShadow_325_73"/>
<feBlend mode="normal" in="SourceGraphic" in2="effect1_dropShadow_325_73" result="shape"/>
</filter>
</defs>
</svg>
